<?xml version="1.0" encoding="iso-8859-1"?>
<!-- Uploaded to: SVG Repo, www.svgrepo.com, Generator: SVG Repo Mixer Tools -->
<!DOCTYPE svg PUBLIC "-//W3C//DTD SVG 1.1//EN" "http://www.w3.org/Graphics/SVG/1.1/DTD/svg11.dtd">
<svg fill="#0056B3" version="1.1" id="Capa_1" xmlns="http://www.w3.org/2000/svg" xmlns:xlink="http://www.w3.org/1999/xlink" 
	 width="800px" height="800px" viewBox="0 0 31.957 31.957"
	 xml:space="preserve">
<g>
	<g>
		<path d="M27.749,16.205c-1.488,0-2.8,0.775-3.546,1.943c-0.713-0.018-1.347,0.113-1.906,0.391
			c-1.71,0.846-2.261,2.768-2.796,4.625c-0.783,2.729-1.39,4.408-3.876,4.562c-1.18,0.073-2.105-0.235-2.805-0.945
			c-1.034-1.048-1.441-3.631-1.585-4.954c-0.054-0.492,0.158-0.973,0.556-1.266c5.206-3.832,7.678-7.524,7.35-10.984
			c-0.31-3.29-3.045-5.307-4.467-6.142c0.121,0.288,0.121,0.288,0,0c-0.366-0.858-1.216-1.46-2.205-1.46
			c-1.324,0-2.398,1.073-2.398,2.397c0,1.324,1.074,2.398,2.398,2.398c0.748,0,1.417-0.345,1.857-0.884l0,0
			c1.076,0.78,2.407,2.094,2.578,3.901c0.132,1.388-0.444,2.911-1.694,4.537L3.938,14.329c-1.231-1.628-1.803-3.141-1.677-4.518
			c0.155-1.669,2.351-3.739,2.351-3.739c0.433,0.432,1.028,0.699,1.69,0.699c1.322,0,2.393-1.074,2.393-2.398
			c0-1.324-1.072-2.397-2.395-2.397c-1.111,0-2.045,0.755-2.317,1.778c0,0.001,0,0.002,0,0.002C2.5,4.731,0.303,6.65,0.029,9.579
			c-0.353,3.693,2.505,7.625,8.438,11.757c0.646,0.451,0.846,5.08,2.747,7.017c1.066,1.084,2.436,1.63,4.077,1.63
			c0.155,0,0.313-0.004,0.475-0.016c4.193-0.256,5.177-3.682,5.896-6.182c0.417-1.453,0.812-2.826,1.633-3.232
			c0.076-0.037,0.173,0.218,0.261,0.193c0.028,2.301,1.887,3.873,4.194,3.873c2.324,0,4.207-1.884,4.207-4.207
			C31.956,18.088,30.073,16.205,27.749,16.205z M6.021,16.53h7.125c-0.913,0.876-1.795,1.568-2.64,2.183
			c-0.552,0.398-1.297,0.397-1.846-0.006C7.668,17.98,6.787,17.267,6.021,16.53z M29.857,21.517c0.024-0.13,0.037-0.265,0.037-0.401
			c0-1.188-0.959-2.148-2.146-2.148c-1.188,0-2.149,0.961-2.149,2.148c0,0.137,0.014,0.271,0.038,0.401
			c-0.172-0.33-0.271-0.705-0.271-1.104c0-1.314,1.065-2.381,2.382-2.381c1.312,0,2.381,1.066,2.381,2.381
			C30.13,20.812,30.03,21.187,29.857,21.517z"/>
	</g>
</g>
</svg>